<svg width="240" height="74" viewBox="0 0 240 74" fill="none" xmlns="http://www.w3.org/2000/svg">
<path fill-rule="evenodd" clip-rule="evenodd" d="M105.488 22.7863C103.168 22.7863 100.414 23.2782 97.4059 26.7661V17.0049C97.4059 14.5391 95.4046 12.5332 92.9443 12.5332C90.484 12.5332 88.4827 14.5391 88.4827 17.0049V48.8374C88.4827 51.3032 90.484 53.3091 92.9443 53.3091C95.4046 53.3091 97.4059 51.3032 97.4059 48.8374V36.4826C97.4059 32.9307 99.0886 30.9696 102.154 30.9696C105.156 30.9696 106.737 32.8732 106.737 36.4826V48.8374C106.737 51.3032 108.738 53.3091 111.199 53.3091C113.659 53.3091 115.66 51.3032 115.66 48.8374V33.889C115.654 26.9386 111.855 22.7863 105.488 22.7863ZM131.111 23.0036C127.478 23.0036 124.597 23.4763 121.773 24.5368C120.307 25.0861 119.326 26.5043 119.326 28.063C119.326 30.1456 120.977 31.7746 123.086 31.7746C123.52 31.7746 123.883 31.7107 124.38 31.5446C126.095 31.008 127.905 30.7525 129.925 30.7525C134.718 30.7525 135.738 33.4036 135.751 35.6458C134.087 35.1028 131.99 34.6046 129.065 34.6046C121.442 34.6046 117.069 38.0989 117.069 44.1996V44.3083C117.069 49.8213 121.2 53.5264 127.344 53.5264C130.805 53.5264 133.578 52.4724 135.789 50.3132C136.165 51.8911 137.676 53.3156 139.996 53.3156C142.437 53.3156 144.349 51.4247 144.349 49.01V35.8311C144.349 31.6852 143.266 28.4911 141.118 26.3446C138.9 24.1279 135.534 23.0036 131.111 23.0036ZM129.817 47.1191C127.287 47.1191 125.719 45.9181 125.719 43.9825V43.8739C125.719 41.5677 127.644 40.2517 131.003 40.2517C132.723 40.2517 134.438 40.5903 135.859 41.2036V42.4237C135.859 45.1834 133.374 47.1191 129.817 47.1191ZM156.306 26.8431C158.613 24.1154 161.456 22.7866 164.974 22.7866C171.686 22.7866 178.474 28.0441 178.474 38.0991V38.2077C178.474 42.8392 177.053 46.7616 174.369 49.5596C171.915 52.1213 168.582 53.5267 164.974 53.5267C161.501 53.5267 158.741 52.3385 156.351 49.8087V57.4746C156.351 59.9404 154.349 61.9463 151.889 61.9463C149.429 61.9463 147.427 59.9404 147.427 57.4746V27.4756C147.427 25.0097 149.429 23.0038 151.889 23.0038C154.139 23.0038 156 24.6775 156.306 26.8431ZM169.557 38.0991C169.557 33.7616 166.683 30.4844 162.871 30.4844C159.034 30.4844 156.242 33.6849 156.242 38.0991V38.2077C156.242 42.622 159.028 45.8225 162.871 45.8225C166.746 45.8225 169.557 42.622 169.557 38.2077V38.0991ZM198.08 22.7866C194.561 22.7866 191.719 24.1154 189.411 26.8431C189.105 24.6775 187.244 23.0038 184.994 23.0038C182.534 23.0038 180.533 25.0097 180.533 27.4756V57.4746C180.533 59.9404 182.534 61.9463 184.994 61.9463C187.455 61.9463 189.456 59.9404 189.456 57.4746V49.8087C191.846 52.3385 194.606 53.5267 198.08 53.5267C201.687 53.5267 205.021 52.1213 207.475 49.5596C210.158 46.7616 211.579 42.8392 211.579 38.2077V38.0991C211.579 28.0441 204.791 22.7866 198.08 22.7866ZM195.976 30.4844C199.788 30.4844 202.662 33.7616 202.662 38.0991V38.2077C202.662 42.622 199.852 45.8225 195.976 45.8225C192.133 45.8225 189.348 42.622 189.348 38.2077V38.0991C189.348 33.6849 192.139 30.4844 195.976 30.4844ZM231.485 26.3766C232.313 24.1663 233.792 23.0037 235.761 23.0037C238.139 23.0037 240.006 24.8243 240 27.1368C240 27.8076 239.783 28.7786 239.592 29.2258L229.528 53.4498C226.998 59.5889 224.359 61.7673 219.445 61.7673C217.711 61.7673 216.379 61.5373 214.849 60.9879C213.797 60.6046 212.026 59.6081 212.026 57.2444C212.026 54.9191 213.855 53.5329 215.62 53.5329C216.321 53.5329 216.742 53.6543 217.08 53.7693C217.775 53.9865 218.157 54.0759 218.686 54.0759C220.025 54.0759 220.586 53.8587 221.261 52.5619L221.465 52.0764L211.675 29.3408C211.452 28.7786 211.216 27.9098 211.216 27.3029C211.216 24.8499 213.109 22.9973 215.62 22.9973C217.692 22.9973 219.094 24.0833 219.897 26.3191L225.793 42.2066L231.485 26.3766Z" fill="white"/>
<path d="M63.9739 18.7786V44.9078C63.9739 55.2784 55.5339 63.6863 45.1237 63.6863H43.217L33.4805 73.3795C33.0992 73.7594 32.5717 74 31.987 74C31.4467 74 30.9574 73.8037 30.5824 73.4745L30.4172 73.3099L30.4108 73.3036L20.7569 63.6863H18.8439C8.44003 63.6863 0 55.2784 0 44.9078V18.7786C0 8.40794 8.44003 0 18.8503 0H45.1237C55.5339 0 63.9739 8.40794 63.9739 18.7786Z" fill="#FFD666"/>
<path d="M14.895 36.1973C13.0392 36.1973 11.9814 38.3039 13.0582 39.825C17.2449 45.7504 24.1677 49.6136 31.99 49.6136C39.8123 49.6136 46.7289 45.744 50.9155 39.825C51.9923 38.3039 50.9345 36.1973 49.0787 36.1973H14.895Z" fill="white"/>
<path d="M25.764 27.23H14.5658V21.6038C14.5658 18.4979 17.074 15.9775 20.1649 15.9775C23.2558 15.9775 25.764 18.4979 25.764 21.6038V27.23Z" fill="white"/>
<path d="M49.4148 27.23H38.2166V21.6038C38.2166 18.4979 40.7248 15.9775 43.8157 15.9775C46.9066 15.9775 49.4148 18.4979 49.4148 21.6038V27.23Z" fill="white"/>
</svg>
